<svg xmlns="http://www.w3.org/2000/svg" xmlns:xlink="http://www.w3.org/1999/xlink">
  <defs/>
  <g>
    <path stroke="none" fill="#FFFFFF" d="M-5 -6 Q-3.7 -6 -2.9 -6.8 -2 -7.7 -2 -9 -2 -10.05 -2.7 -10.9 L-2.9 -11.1 Q-3.7 -12 -5 -12 -6.25 -12 -7.15 -11.1 -8 -10.25 -8 -9 L-7.75 -7.7 -7.15 -6.8 Q-6.25 -6 -5 -6 M4 -6 Q5.3 -6 6.1 -6.8 7 -7.7 7 -9 7 -10.2 6.1 -11.1 5.3 -12 4 -12 2.75 -12 1.85 -11.1 1 -10.25 1 -9 1 -7.7 1.85 -6.8 2.75 -6 4 -6 M-0.5 -27 Q5.05 -27 9.05 -23.25 11.55 -20.9 12.45 -17.9 13 -16.2 13 -14.25 13 -12.5 12.5 -10.8 L11.5 -8.4 11.5 -6 Q11.5 -4.7 10.6 -3.8 9.8 -3 8.5 -3 L5.5 -3 5.5 0 Q5.5 1.3 4.6 2.2 3.8 3 2.5 3 L-3.5 3 Q-4.75 3 -5.65 2.2 -6.5 1.3 -6.5 0 L-6.5 -3 -9.5 -3 Q-10.75 -3 -11.65 -3.8 L-12.3 -4.85 -12.5 -6 -12.5 -8.4 Q-13.25 -9.7 -13.6 -11.15 -14 -12.6 -14 -14.25 -14 -19.5 -10 -23.25 -6.1 -27 -0.5 -27 M16 -14.25 L15.95 -15.7 26.65 -9 Q30.85 -6.4 30.45 -3.45 30.8 -0.85 27.45 1.55 30.8 3.9 30.45 6.55 30.85 9.4 26.65 12.05 L1.6 27.75 Q-4.75 31.7 -11.1 27.75 L-11.15 27.75 -26.6 18 -26.55 18 Q-30.8 15.4 -30.4 12.5 -30.75 9.9 -27.35 7.5 -30.75 5.15 -30.4 2.5 -30.8 -0.4 -26.55 -3 L-26.6 -3 -16.25 -9.5 -15.5 -7.65 -15.5 -6 Q-15.5 -4.5 -14.85 -3.25 L-23.4 2.1 Q-24.05 2.5 -24.35 2.5 -24.05 2.5 -23.4 2.9 L-23.4 2.95 -20.35 4.85 -19.9 5.15 -7.95 12.7 -7.95 12.65 Q-4.75 14.6 -1.55 12.65 L20.05 -0.85 20.25 -1 20.3 -1 23.45 -3.05 24.45 -3.45 Q24.15 -3.5 23.5 -3.9 L23.45 -3.9 15.1 -9.15 Q16 -11.65 16 -14.25"/>
  </g>
</svg>