<svg xmlns="http://www.w3.org/2000/svg" xmlns:xlink="http://www.w3.org/1999/xlink">
  <defs/>
  <g>
    <path stroke="none" fill="#FFFFFF" d="M9 12 Q11.55 12 13.2 10.35 15 8.55 15 6 15 3.6 13.2 1.8 11.55 0 9 0 6.45 0 4.65 1.8 3 3.45 3 6 3 8.55 4.65 10.35 6.45 12 9 12 M-9 12 Q-6.45 12 -4.8 10.35 -3 8.55 -3 6 -3 3.6 -4.8 1.8 -6.45 0 -9 0 -11.55 0 -13.35 1.8 -15 3.45 -15 6 -15 8.55 -13.35 10.35 -11.55 12 -9 12 M0 -30 Q11.1 -30 19.05 -22.5 27 -15 27 -4.5 27 1.5 24 7.2 L24 12 Q24 14.55 22.2 16.35 20.55 18 18 18 L12 18 12 24 Q12 26.55 10.2 28.35 8.55 30 6 30 L-6 30 Q-8.55 30 -10.35 28.35 -12 26.55 -12 24 L-12 18 -18 18 Q-20.55 18 -22.35 16.35 -24 14.55 -24 12 L-24 7.2 Q-27 1.95 -27 -4.5 -27 -15 -19.05 -22.5 -11.25 -30 0 -30"/>
  </g>
</svg>